Coordinates
version=1
nRows=27
nColumns=12
inDegrees=yes

Units are S.I. units (second, meters, Newtons, ...)
Angles are in degrees

endheader
time	SC_y	SC_z	SC_x	AC_y	AC_z	AC_x	GH_y	GH_z	GH_yy	EL_x	PS_y
       0.0              -35.31          4.677          71.18          59.99         -5.589          16.48          147.5          77.53         -97.82          17.52          76.87
   0.01636              -35.31          4.678          71.17          59.99         -5.588          16.47          147.5          77.53         -97.82          17.53          76.87
   0.03272              -35.31           4.68          71.17          59.99         -5.586          16.47          147.5          77.52         -97.83          17.53          76.86
   0.04908              -35.32          4.682          71.16          59.99         -5.585          16.47          147.4          77.51         -97.83          17.54          76.86
   0.06544              -35.32          4.685          71.15          59.99         -5.584          16.46          147.4           77.5         -97.83          17.54          76.86
    0.0818              -35.32          4.687          71.14          59.99         -5.583          16.46          147.4          77.49         -97.83          17.55          76.85
   0.09816              -35.33          4.689          71.13          59.99         -5.581          16.46          147.4          77.48         -97.83          17.56          76.85
    0.1145              -35.33          4.692          71.12          59.98          -5.58          16.45          147.3          77.47         -97.83          17.56          76.84
    0.1309              -35.34          4.695          71.11          59.98         -5.578          16.45          147.3          77.46         -97.84          17.57          76.83
    0.1472              -35.35          4.698           71.1          59.98         -5.576          16.44          147.3          77.44         -97.84          17.58          76.83
    0.1636              -35.35          4.701          71.09          59.98         -5.574          16.44          147.3          77.43         -97.84          17.59          76.82
      0.18              -35.36          4.705          71.07          59.97         -5.572          16.43          147.2          77.42         -97.84           17.6          76.81
    0.1963              -35.36          4.709          71.06          59.97          -5.57          16.43          147.2           77.4         -97.85          17.61          76.81
    0.2127              -35.37          4.713          71.04          59.97         -5.567          16.42          147.1          77.38         -97.85          17.62           76.8
     0.229              -35.38          4.717          71.02          59.97         -5.565          16.41          147.1          77.36         -97.85          17.63          76.79
    0.2454              -35.39          4.722          71.01          59.96         -5.562          16.41          147.0          77.34         -97.85          17.64          76.78
    0.2618               -35.4          4.728          70.99          59.96         -5.559           16.4          147.0          77.32         -97.86          17.65          76.77
    0.2781              -35.41          4.733          70.96          59.96         -5.555          16.39          146.9           77.3         -97.86          17.67          76.76
    0.2945              -35.42           4.74          70.94          59.95         -5.552          16.38          146.9          77.27         -97.87          17.68          76.74
    0.3108              -35.43          4.746          70.91          59.95         -5.548          16.37          146.8          77.24         -97.87           17.7          76.73
    0.3272              -35.45          4.754          70.89          59.94         -5.543          16.36          146.7          77.21         -97.88          17.72          76.72
    0.3436              -35.46          4.762          70.85          59.94         -5.539          16.35          146.7          77.18         -97.88          17.74           76.7
    0.3599              -35.48          4.772          70.82          59.93         -5.533          16.33          146.6          77.14         -97.89          17.77          76.68
    0.3763               -35.5          4.782          70.78          59.92         -5.527          16.32          146.5           77.1          -97.9          17.79          76.66
    0.3926              -35.52          4.793          70.74          59.91         -5.521           16.3          146.3          77.05          -97.9          17.82          76.64
     0.409              -35.54          4.806          70.69          59.91         -5.513          16.28          146.2           77.0         -97.91          17.85          76.61
    0.4254              -35.57           4.82          70.64           59.9         -5.505          16.26          146.1          76.94         -97.92          17.89          76.58
